<svg width="30" height="22" viewBox="0 0 30 22" fill="none" xmlns="http://www.w3.org/2000/svg">
<path d="M20.4545 0C20.8162 0 21.1631 0.143669 21.4188 0.3994C21.6745 0.655132 21.8182 1.00198 21.8182 1.36364V7.09091L28.9268 2.11364C29.029 2.04199 29.149 1.99977 29.2735 1.99159C29.3981 1.98342 29.5225 2.00959 29.6332 2.06727C29.7439 2.12494 29.8367 2.2119 29.9013 2.31866C29.966 2.42543 30.0001 2.5479 30 2.67273V19.1455C30.0001 19.2703 29.966 19.3928 29.9013 19.4995C29.8367 19.6063 29.7439 19.6932 29.6332 19.7509C29.5225 19.8086 29.3981 19.8348 29.2735 19.8266C29.149 19.8184 29.029 19.7762 28.9268 19.7045L21.8182 14.7273V20.4545C21.8182 20.8162 21.6745 21.1631 21.4188 21.4188C21.1631 21.6745 20.8162 21.8182 20.4545 21.8182H1.36364C1.00198 21.8182 0.655131 21.6745 0.3994 21.4188C0.143668 21.1631 0 20.8162 0 20.4545V1.36364C0 1.00198 0.143668 0.655132 0.3994 0.3994C0.655131 0.143669 1.00198 0 1.36364 0H20.4545ZM19.0909 2.72727H2.72727V19.0909H19.0909V2.72727ZM8.72727 6.585C8.83105 6.58472 8.93276 6.61405 9.02045 6.66955L14.9591 10.4495C15.0362 10.4989 15.0997 10.5668 15.1437 10.6471C15.1877 10.7274 15.2107 10.8175 15.2107 10.9091C15.2107 11.0007 15.1877 11.0907 15.1437 11.1711C15.0997 11.2514 15.0362 11.3193 14.9591 11.3686L9.02045 15.15C8.93774 15.2027 8.84234 15.2322 8.7443 15.2352C8.64625 15.2383 8.5492 15.2149 8.46335 15.1674C8.37751 15.1199 8.30605 15.0502 8.2565 14.9656C8.20696 14.8809 8.18116 14.7845 8.18182 14.6864V7.13182C8.18182 6.83045 8.42727 6.58636 8.72727 6.58636V6.585ZM27.2727 6.6L21.8182 10.4182V11.3973L27.2727 15.2155V6.6Z" fill="white"/>
</svg>
