<svg width="30" height="30" viewBox="0 0 30 30" fill="none" xmlns="http://www.w3.org/2000/svg">
<path d="M2.96925e-07 4.5L10.5 0L19.5 4.5L28.9545 0.4485C29.0686 0.399576 29.1931 0.379754 29.3168 0.390814C29.4405 0.401874 29.5595 0.443469 29.6631 0.511867C29.7668 0.580266 29.8518 0.673326 29.9106 0.782697C29.9694 0.892068 30.0001 1.01433 30 1.1385V25.5L19.5 30L10.5 25.5L1.0455 29.5515C0.931371 29.6004 0.806879 29.6203 0.683199 29.6092C0.559518 29.5981 0.440519 29.5565 0.336881 29.4881C0.233243 29.4197 0.148209 29.3267 0.0894105 29.2173C0.0306123 29.1079 -0.000110184 28.9857 2.96925e-07 28.8615V4.5ZM21 26.0925L27 23.5215V4.5495L21 7.1205V26.0925ZM18 25.896V7.104L12 4.104V22.896L18 25.896ZM9 22.8795V3.9075L3 6.4785V25.4505L9 22.8795Z" fill="white"/>
</svg>
