<svg width="19" height="19" viewBox="0 0 19 19" fill="none" xmlns="http://www.w3.org/2000/svg">
<circle cx="9.5" cy="9.5" r="9.5" fill="white"/>
<path d="M13.9996 6.83098C13.6625 6.97361 13.305 7.06728 12.939 7.10889C13.3248 6.88818 13.6135 6.54082 13.7514 6.13154C13.3894 6.33766 12.9924 6.48211 12.5787 6.56024C12.3008 6.27581 11.9325 6.08718 11.531 6.02367C11.1295 5.96015 10.7173 6.02532 10.3584 6.20903C9.99962 6.39274 9.71431 6.68471 9.54685 7.03954C9.37939 7.39437 9.33917 7.79218 9.43245 8.17113C8.69824 8.13593 7.97998 7.95341 7.3243 7.63543C6.66862 7.31746 6.09018 6.87112 5.62652 6.32541C5.4624 6.59507 5.37616 6.90161 5.37662 7.21364C5.37662 7.82606 5.70246 8.36711 6.19785 8.68388C5.90468 8.67505 5.61797 8.59931 5.36161 8.46298V8.48495C5.3617 8.89282 5.50924 9.28812 5.77922 9.60381C6.0492 9.9195 6.42501 10.1362 6.84292 10.2171C6.57077 10.2876 6.28541 10.298 6.00844 10.2475C6.12627 10.5985 6.35592 10.9056 6.66524 11.1256C6.97457 11.3456 7.34807 11.4676 7.73347 11.4744C7.35044 11.7622 6.91187 11.9749 6.44284 12.1004C5.97382 12.226 5.48352 12.2618 5 12.206C5.84406 12.7252 6.82662 13.0009 7.83016 13C11.2268 13 13.0843 10.3083 13.0843 7.97389C13.0843 7.89786 13.0821 7.82099 13.0785 7.74581C13.4401 7.49585 13.7521 7.18619 14 6.8314L13.9996 6.83098Z" fill="#00A3FF"/>
</svg>
